<?xml version="1.0" standalone="no"?>
<!DOCTYPE svg PUBLIC "-//W3C//DTD SVG 20010904//EN"
 "http://www.w3.org/TR/2001/REC-SVG-20010904/DTD/svg10.dtd">
<svg version="1.0" xmlns="http://www.w3.org/2000/svg"
 width="1024.000000pt" height="1024.000000pt" viewBox="0 0 1024.000000 1024.000000"
 preserveAspectRatio="xMidYMid meet">
<metadata>
Created by potrace 1.14, written by Peter Selinger 2001-2017
</metadata>
<g transform="translate(0.000000,1024.000000) scale(0.100000,-0.100000)"
fill="#000000" stroke="none">
<path d="M5015 8576 c-140 -45 -264 -171 -302 -306 -4 -14 -9 -239 -10 -500
-2 -261 -5 -475 -6 -477 -2 -1 -383 -4 -847 -5 l-845 -4 -97 -26 c-354 -97
-645 -371 -757 -713 -30 -91 -34 -113 -47 -220 -9 -79 -9 -3819 0 -3910 18
-173 108 -355 246 -495 145 -146 302 -230 485 -258 22 -4 1062 -7 2310 -7
2474 0 2314 -3 2466 54 217 82 424 294 509 522 51 139 49 61 49 2144 -1 1971
0 1949 -34 2110 -11 53 -48 148 -83 215 -133 251 -368 451 -632 539 -148 49
-163 49 -1029 50 -448 1 -817 3 -819 6 -2 2 -5 214 -6 472 -2 257 -6 480 -9
494 -34 134 -149 258 -284 308 -60 22 -200 26 -258 7z m-1088 -2920 c95 -10
186 -55 270 -130 120 -109 174 -233 175 -401 0 -109 -15 -173 -61 -260 -33
-64 -44 -78 -111 -143 -155 -151 -427 -185 -627 -79 -112 59 -210 174 -253
297 -24 68 -33 211 -18 296 20 119 93 237 193 313 87 68 121 81 278 115 14 3
98 -2 154 -8z m2614 0 c50 -7 140 -42 187 -74 76 -50 172 -151 172 -179 0 -7
3 -13 8 -13 11 0 51 -109 59 -160 30 -200 -19 -362 -152 -496 -108 -109 -240
-157 -410 -149 -228 10 -407 142 -481 355 -28 79 -39 223 -22 290 32 129 73
205 156 285 122 119 284 166 483 141z m-2275 -2476 c0 -113 -1 -210 -3 -215
-2 -7 -147 -11 -433 -11 l-430 0 -1 80 c0 99 0 303 0 332 l1 22 433 -2 432 -1
1 -205z m1302 6 c1 -110 -1 -208 -3 -216 -5 -14 -56 -16 -435 -16 l-430 0 0
217 0 217 433 0 434 -1 1 -201z m1302 -15 l0 -217 -432 1 -433 0 -2 216 -2
217 435 0 434 0 0 -217z"/>
<path d="M1133 5545 c-139 -33 -266 -148 -314 -286 l-22 -64 -1 -905 c-1 -498
2 -932 6 -965 21 -158 164 -318 323 -360 17 -5 142 -9 278 -10 218 -2 249 0
255 14 6 12 9 2551 3 2582 -2 10 -479 5 -528 -6z"/>
<path d="M8606 5551 c-2 -3 -2 -589 -2 -1301 l1 -1295 230 -1 c241 0 306 5
357 30 17 9 36 16 41 16 20 0 115 86 155 140 23 30 50 84 62 120 20 64 21 76
18 1015 -3 911 -4 952 -22 995 -57 134 -188 250 -311 276 -38 8 -525 12 -529
5z"/>
</g>
</svg>
